<svg width="512" height="512" viewBox="0 0 512 512" fill="none" xmlns="http://www.w3.org/2000/svg">
  <defs>
    <linearGradient id="g5" x1="104" y1="86" x2="406" y2="426" gradientUnits="userSpaceOnUse">
      <stop offset="0" stop-color="#FDE68A"/>
      <stop offset="1" stop-color="#D97706"/>
    </linearGradient>
    <linearGradient id="g5Soft" x1="126" y1="124" x2="386" y2="388" gradientUnits="userSpaceOnUse">
      <stop offset="0" stop-color="#FDE68A" stop-opacity="0.22"/>
      <stop offset="1" stop-color="#D97706" stop-opacity="0.1"/>
    </linearGradient>
  </defs>

  <rect x="98" y="98" width="316" height="316" rx="46" stroke="url(#g5)" stroke-width="14"/>
  <rect x="120" y="120" width="272" height="272" rx="34" fill="url(#g5Soft)" stroke="url(#g5)" stroke-opacity="0.2"/>

  <path d="M194 88L256 56L318 88" stroke="url(#g5)" stroke-width="10" stroke-linecap="round" stroke-linejoin="round"/>
  <path d="M206 78H306" stroke="url(#g5)" stroke-width="6" stroke-linecap="round" opacity="0.85"/>
  <circle cx="256" cy="76" r="9" fill="url(#g5)"/>

  <path d="M156 160V352" stroke="url(#g5)" stroke-width="24" stroke-linecap="round"/>
  <path d="M172 256L268 162" stroke="url(#g5)" stroke-width="24" stroke-linecap="round"/>
  <path d="M184 256L274 350" stroke="url(#g5)" stroke-width="24" stroke-linecap="round"/>

  <path d="M278 350L336 166L394 350" stroke="url(#g5)" stroke-width="24" stroke-linecap="round" stroke-linejoin="round"/>
  <path d="M296 286H376" stroke="url(#g5)" stroke-width="18" stroke-linecap="round"/>

  <path d="M104 256C104 256 84 236 84 206" stroke="url(#g5)" stroke-width="7" stroke-linecap="round"/>
  <path d="M104 256C104 256 84 276 84 306" stroke="url(#g5)" stroke-width="7" stroke-linecap="round"/>
  <path d="M408 256C408 256 428 236 428 206" stroke="url(#g5)" stroke-width="7" stroke-linecap="round"/>
  <path d="M408 256C408 256 428 276 428 306" stroke="url(#g5)" stroke-width="7" stroke-linecap="round"/>

  <path d="M224 436H288" stroke="url(#g5)" stroke-width="8" stroke-linecap="round" opacity="0.85"/>
  <path d="M238 452H274" stroke="url(#g5)" stroke-width="6" stroke-linecap="round" opacity="0.75"/>
</svg>
