<svg width="512" height="512" viewBox="0 0 512 512" fill="none" xmlns="http://www.w3.org/2000/svg">
  <defs>
    <linearGradient id="g4" x1="78" y1="88" x2="434" y2="420" gradientUnits="userSpaceOnUse">
      <stop offset="0" stop-color="#A78BFA"/>
      <stop offset="1" stop-color="#22D3EE"/>
    </linearGradient>
    <linearGradient id="g4Soft" x1="110" y1="110" x2="402" y2="402" gradientUnits="userSpaceOnUse">
      <stop offset="0" stop-color="#A78BFA" stop-opacity="0.24"/>
      <stop offset="1" stop-color="#22D3EE" stop-opacity="0.12"/>
    </linearGradient>
  </defs>

  <path d="M86 118L186 80H322L426 118V392L322 432H186L86 392V118Z" stroke="url(#g4)" stroke-width="10" opacity="0.35"/>
  <path d="M118 144L196 116H314L394 144V368L314 396H196L118 368V144Z" fill="url(#g4Soft)"/>

  <path d="M112 96L154 96" stroke="url(#g4)" stroke-width="8" stroke-linecap="round"/>
  <path d="M358 416L400 416" stroke="url(#g4)" stroke-width="8" stroke-linecap="round"/>
  <path d="M92 360L92 318" stroke="url(#g4)" stroke-width="8" stroke-linecap="round"/>
  <path d="M420 194L420 152" stroke="url(#g4)" stroke-width="8" stroke-linecap="round"/>

  <path d="M150 150V362" stroke="url(#g4)" stroke-width="24" stroke-linecap="round"/>
  <path d="M166 256L282 148" stroke="url(#g4)" stroke-width="24" stroke-linecap="round"/>
  <path d="M178 256L286 362" stroke="url(#g4)" stroke-width="24" stroke-linecap="round"/>

  <path d="M286 362L350 150L414 362" stroke="url(#g4)" stroke-width="24" stroke-linecap="round" stroke-linejoin="round"/>
  <path d="M308 292H392" stroke="url(#g4)" stroke-width="18" stroke-linecap="round"/>

  <path d="M256 74L264 90L282 92L268 104L272 122L256 114L240 122L244 104L230 92L248 90L256 74Z" fill="url(#g4)"/>
  <path d="M256 438L262 450L276 452L266 462L268 476L256 470L244 476L246 462L236 452L250 450L256 438Z" fill="url(#g4)" opacity="0.9"/>
</svg>
